<?xml version="1.0" encoding="UTF-8" standalone="no"?>
<svg width="80px" height="81px" viewBox="0 0 80 81" version="1.1" xmlns="http://www.w3.org/2000/svg" xmlns:xlink="http://www.w3.org/1999/xlink">
    <!-- Generator: Sketch 48.2 (47327) - http://www.bohemiancoding.com/sketch -->
    <title>directions</title>
    <desc>Created with Sketch.</desc>
    <defs>
        <linearGradient x1="-4.17792246%" y1="55.889073%" x2="104.242003%" y2="44.0681534%" id="linearGradient-1">
            <stop stop-color="#FFFFFF" stop-opacity="0" offset="0%"></stop>
            <stop stop-color="#FFFFFF" offset="100%"></stop>
        </linearGradient>
        <linearGradient x1="43.9819978%" y1="-3.79657042%" x2="55.852753%" y2="104.16743%" id="linearGradient-2">
            <stop stop-color="#FFFFFF" stop-opacity="0" offset="0%"></stop>
            <stop stop-color="#FFFFFF" offset="100%"></stop>
        </linearGradient>
        <linearGradient x1="103.968282%" y1="44.0628852%" x2="-4.452023%" y2="55.9337238%" id="linearGradient-3">
            <stop stop-color="#FFFFFF" stop-opacity="0" offset="0%"></stop>
            <stop stop-color="#FFFFFF" offset="100%"></stop>
        </linearGradient>
        <linearGradient x1="55.7778057%" y1="104.070104%" x2="43.9070505%" y2="-4.34944054%" id="linearGradient-4">
            <stop stop-color="#FFFFFF" stop-opacity="0" offset="0%"></stop>
            <stop stop-color="#FFFFFF" offset="100%"></stop>
        </linearGradient>
    </defs>
    <g id="Page-1" stroke="none" stroke-width="1" fill="none" fill-rule="evenodd">
        <g id="Middlebury_FrameworkWeb_V2" transform="translate(-2221.000000, -1078.000000)" fill-rule="nonzero">
            <g id="content">
                <g id="directions" transform="translate(2221.000000, 1078.000000)">
                    <g id="Group" transform="translate(3.000000, 3.000000)" fill="#84BCD5">
                        <circle id="Oval" cx="37" cy="37.3" r="36.6"></circle>
                    </g>
                    <circle id="Oval" fill="#E5E5E4" cx="39.9" cy="40.3" r="24.7"></circle>
                    <g id="Group" opacity="0.9" transform="translate(11.000000, 12.000000)">
                        <g id="Shape">
                            <polygon fill="url(#linearGradient-1)" points="24.2 19.6 20 23.9 0.5 4.4 4.8 0.1"></polygon>
                            <polygon fill="url(#linearGradient-2)" points="38.1 23.9 33.8 19.6 53.2 0.1 57.5 4.4"></polygon>
                        </g>
                        <g transform="translate(0.000000, 32.000000)" id="Shape">
                            <polygon fill="url(#linearGradient-3)" points="33.5 5 37.8 0.8 57.2 20.2 52.9 24.5"></polygon>
                            <polygon fill="url(#linearGradient-4)" points="19.7 0.8 23.9 5 4.5 24.5 0.2 20.2"></polygon>
                        </g>
                    </g>
                    <circle id="Oval" fill="#FFFFFF" cx="39.9" cy="40.3" r="10.7"></circle>
                    <path d="M40,3.7 C60.2,3.7 76.6,20.1 76.6,40.3 C76.6,60.5 60.2,76.9 40,76.9 C19.8,76.9 3.4,60.5 3.4,40.3 C3.4,20.1 19.8,3.7 40,3.7 Z M40,0.4 C34.6,0.4 29.4,1.5 24.4,3.5 C19.6,5.5 15.4,8.4 11.7,12.1 C8,15.8 5.2,20 3.1,24.8 C1,29.7 -1.13686838e-13,35 -1.13686838e-13,40.4 C-1.13686838e-13,45.8 1.1,51 3.1,56 C5.1,60.8 8,65 11.7,68.7 C15.4,72.4 19.6,75.2 24.4,77.3 C29.3,79.4 34.6,80.4 40,80.4 C45.4,80.4 50.6,79.3 55.6,77.3 C60.4,75.3 64.6,72.4 68.3,68.7 C72,65 74.8,60.8 76.9,56 C79,51.1 80,45.8 80,40.4 C80,35 78.9,29.8 76.9,24.8 C74.9,20 72,15.8 68.3,12.1 C64.6,8.4 60.4,5.6 55.6,3.5 C50.6,1.4 45.4,0.4 40,0.4 Z" id="Shape" fill="#E5E5E4" opacity="0.9"></path>
                </g>
            </g>
        </g>
    </g>
</svg>