<?xml version="1.0" encoding="UTF-8" standalone="no"?>
<svg width="80px" height="81px" viewBox="0 0 80 81" version="1.1" xmlns="http://www.w3.org/2000/svg" xmlns:xlink="http://www.w3.org/1999/xlink">
    <!-- Generator: Sketch 48.2 (47327) - http://www.bohemiancoding.com/sketch -->
    <title>mission</title>
    <desc>Created with Sketch.</desc>
    <defs>
        <linearGradient x1="-4.17580344%" y1="55.7518152%" x2="104.243741%" y2="43.88106%" id="linearGradient-1">
            <stop stop-color="#FFFFFF" stop-opacity="0" offset="0%"></stop>
            <stop stop-color="#FFFFFF" offset="100%"></stop>
        </linearGradient>
        <linearGradient x1="43.9803007%" y1="-4.18524445%" x2="55.851056%" y2="104.2343%" id="linearGradient-2">
            <stop stop-color="#FFFFFF" stop-opacity="0" offset="0%"></stop>
            <stop stop-color="#FFFFFF" offset="100%"></stop>
        </linearGradient>
        <linearGradient x1="103.969641%" y1="44.1118327%" x2="-4.44990398%" y2="55.982588%" id="linearGradient-3">
            <stop stop-color="#FFFFFF" stop-opacity="0" offset="0%"></stop>
            <stop stop-color="#FFFFFF" offset="100%"></stop>
        </linearGradient>
        <linearGradient x1="55.7764889%" y1="104.119432%" x2="43.9057337%" y2="-4.30011272%" id="linearGradient-4">
            <stop stop-color="#FFFFFF" stop-opacity="0" offset="0%"></stop>
            <stop stop-color="#FFFFFF" offset="100%"></stop>
        </linearGradient>
    </defs>
    <g id="Page-1" stroke="none" stroke-width="1" fill="none" fill-rule="evenodd">
        <g id="Middlebury_FrameworkWeb_V2" transform="translate(-2221.000000, -873.000000)" fill-rule="nonzero">
            <g id="content">
                <g id="mission" transform="translate(2221.000000, 873.000000)">
                    <g id="Group" transform="translate(3.000000, 4.000000)" fill="#F2F2F2">
                        <circle id="Oval" cx="37" cy="36.8" r="36.6"></circle>
                    </g>
                    <circle id="Oval" fill="#E5E5E4" cx="39.9" cy="40.8" r="24.7"></circle>
                    <g id="Group" opacity="0.9" transform="translate(11.000000, 12.000000)">
                        <g id="Shape">
                            <polygon fill="url(#linearGradient-1)" points="24.2 20.1 20 24.4 0.5 4.9 4.8 0.7"></polygon>
                            <polygon fill="url(#linearGradient-2)" points="38.1 24.4 33.8 20.1 53.2 0.7 57.5 4.9"></polygon>
                        </g>
                        <g transform="translate(0.000000, 33.000000)" id="Shape">
                            <polygon fill="url(#linearGradient-3)" points="33.5 4.5 37.8 0.3 57.2 19.7 52.9 24"></polygon>
                            <polygon fill="url(#linearGradient-4)" points="19.7 0.3 23.9 4.5 4.5 24 0.2 19.7"></polygon>
                        </g>
                    </g>
                    <circle id="Oval" fill="#064368" cx="39.9" cy="40.8" r="10.7"></circle>
                    <path d="M40,4.2 C60.2,4.2 76.6,20.6 76.6,40.8 C76.6,61 60.2,77.4 40,77.4 C19.8,77.4 3.4,61 3.4,40.8 C3.4,20.6 19.8,4.2 40,4.2 Z M40,0.9 C34.6,0.9 29.4,2 24.4,4 C19.6,6 15.4,8.9 11.7,12.6 C8,16.3 5.2,20.5 3.1,25.3 C1,30.2 -1.13686838e-13,35.5 -1.13686838e-13,40.9 C-1.13686838e-13,46.3 1.1,51.5 3.1,56.5 C5.1,61.3 8,65.5 11.7,69.2 C15.4,72.9 19.6,75.7 24.4,77.8 C29.3,79.9 34.6,80.9 40,80.9 C45.4,80.9 50.6,79.8 55.6,77.8 C60.4,75.8 64.6,72.9 68.3,69.2 C72,65.5 74.8,61.3 76.9,56.5 C79,51.6 80,46.3 80,40.9 C80,35.5 78.9,30.3 76.9,25.3 C74.9,20.5 72,16.3 68.3,12.6 C64.6,8.9 60.4,6.1 55.6,4 C50.6,1.9 45.4,0.9 40,0.9 Z" id="Shape" fill="#E5E5E4" opacity="0.9"></path>
                </g>
            </g>
        </g>
    </g>
</svg>