<?xml version="1.0" encoding="UTF-8" standalone="no"?>
<svg width="80px" height="81px" viewBox="0 0 80 81" version="1.1" xmlns="http://www.w3.org/2000/svg" xmlns:xlink="http://www.w3.org/1999/xlink">
    <!-- Generator: Sketch 48.2 (47327) - http://www.bohemiancoding.com/sketch -->
    <title>vision</title>
    <desc>Created with Sketch.</desc>
    <defs>
        <linearGradient x1="-4.17923925%" y1="55.8399525%" x2="104.239925%" y2="44.0191158%" id="linearGradient-1">
            <stop stop-color="#FFFFFF" stop-opacity="0" offset="0%"></stop>
            <stop stop-color="#FFFFFF" offset="100%"></stop>
        </linearGradient>
        <linearGradient x1="43.9840752%" y1="-3.84560805%" x2="55.8548304%" y2="104.118392%" id="linearGradient-2">
            <stop stop-color="#FFFFFF" stop-opacity="0" offset="0%"></stop>
            <stop stop-color="#FFFFFF" offset="100%"></stop>
        </linearGradient>
        <linearGradient x1="103.965825%" y1="44.2489189%" x2="-4.45372009%" y2="56.0697971%" id="linearGradient-3">
            <stop stop-color="#FFFFFF" stop-opacity="0" offset="0%"></stop>
            <stop stop-color="#FFFFFF" offset="100%"></stop>
        </linearGradient>
        <linearGradient x1="55.7802634%" y1="104.004007%" x2="43.9095081%" y2="-3.95999368%" id="linearGradient-4">
            <stop stop-color="#FFFFFF" stop-opacity="0" offset="0%"></stop>
            <stop stop-color="#FFFFFF" offset="100%"></stop>
        </linearGradient>
    </defs>
    <g id="Page-1" stroke="none" stroke-width="1" fill="none" fill-rule="evenodd">
        <g id="Middlebury_FrameworkWeb_V2" transform="translate(-2221.000000, -1282.000000)" fill-rule="nonzero">
            <g id="content">
                <g id="vision" transform="translate(2221.000000, 1282.000000)">
                    <g id="Group" transform="translate(3.000000, 4.000000)" fill="#F2F2F2">
                        <circle id="Oval" cx="37" cy="36.8" r="36.6"></circle>
                    </g>
                    <circle id="Oval" fill="#E5E5E4" cx="39.9" cy="40.8" r="24.7"></circle>
                    <g id="Group" opacity="0.9" transform="translate(11.000000, 12.000000)">
                        <g id="Shape">
                            <polygon fill="url(#linearGradient-1)" points="24.2 20.1 20 24.4 0.5 4.9 4.8 0.6"></polygon>
                            <polygon fill="url(#linearGradient-2)" points="38.1 24.4 33.8 20.1 53.2 0.6 57.5 4.9"></polygon>
                        </g>
                        <g transform="translate(0.000000, 33.000000)" id="Shape">
                            <polygon fill="url(#linearGradient-3)" points="33.5 4.5 37.8 0.2 57.2 19.7 52.9 24"></polygon>
                            <polygon fill="url(#linearGradient-4)" points="19.7 0.2 23.9 4.5 4.5 24 0.2 19.7"></polygon>
                        </g>
                    </g>
                    <circle id="Oval" fill="#FFFFFF" cx="39.9" cy="40.8" r="10.7"></circle>
                    <path d="M40,4.2 C60.2,4.2 76.6,20.6 76.6,40.8 C76.6,61 60.2,77.4 40,77.4 C19.8,77.4 3.4,61 3.4,40.8 C3.4,20.6 19.8,4.2 40,4.2 Z M40,0.8 C34.6,0.8 29.4,1.9 24.4,3.9 C19.6,5.9 15.4,8.8 11.7,12.5 C8,16.2 5.2,20.4 3.1,25.2 C1,30.1 -1.13686838e-13,35.4 -1.13686838e-13,40.8 C-1.13686838e-13,46.2 1.1,51.4 3.1,56.4 C5.1,61.2 8,65.4 11.7,69.1 C15.4,72.8 19.6,75.6 24.4,77.7 C29.3,79.8 34.6,80.8 40,80.8 C45.4,80.8 50.6,79.7 55.6,77.7 C60.4,75.7 64.6,72.8 68.3,69.1 C72,65.4 74.8,61.2 76.9,56.4 C79,51.5 80,46.2 80,40.8 C80,35.4 78.9,30.2 76.9,25.2 C74.9,20.4 72,16.2 68.3,12.5 C64.6,8.8 60.4,6 55.6,3.9 C50.6,1.9 45.4,0.8 40,0.8 Z" id="Shape" fill="#B5D7E6"></path>
                </g>
            </g>
        </g>
    </g>
</svg>